<?xml version="1.0" encoding="UTF-8"?>
<svg width="18px" height="28px" viewBox="0 0 18 28" version="1.1" xmlns="http://www.w3.org/2000/svg" xmlns:xlink="http://www.w3.org/1999/xlink">
    <!-- Generator: Sketch Beta 51.2 (57516) - http://www.bohemiancoding.com/sketch -->
    <title>Arrow</title>
    <desc>Created with Sketch Beta.</desc>
    <defs></defs>
    <g id="Page-1" stroke="none" stroke-width="1" fill="none" fill-rule="evenodd">
        <g id="International-Experiences---Desktop---Form" transform="translate(-1333.000000, -2900.000000)" fill="#EB5640" fill-rule="nonzero">
            <g id="5.-Testimonies" transform="translate(-29.000000, 2562.000000)">
                <g id="Arrow" transform="translate(1371.000000, 352.000000) rotate(-90.000000) translate(-1371.000000, -352.000000) translate(1357.000000, 343.000000)">
                    <path d="M3.92592593,0.704347826 L12.5185185,9.7826087 C13.4074074,10.7217391 14.5925926,10.7217391 15.1851852,9.7826087 L23.7777778,0.704347826 C24.6666667,-0.234782609 25.8518519,-0.234782609 26.4444444,0.704347826 L27.3333333,1.64347826 C28.2222222,2.5826087 28.2222222,3.83478261 27.3333333,4.46086957 L15.1851852,17.2956522 C14.2962963,18.2347826 13.1111111,18.2347826 12.5185185,17.2956522 L0.666666667,4.46086957 C-0.222222222,3.52173913 -0.222222222,2.26956522 0.666666667,1.64347826 L1.55555556,0.704347826 C2.14814815,0.0782608696 3.33333333,0.0782608696 3.92592593,0.704347826 Z" id="Shape"></path>
                </g>
            </g>
        </g>
    </g>
</svg>