<?xml version="1.0" encoding="UTF-8"?>
<svg width="26px" height="21px" viewBox="0 0 26 21" version="1.1" xmlns="http://www.w3.org/2000/svg" xmlns:xlink="http://www.w3.org/1999/xlink">
    <!-- Generator: Sketch 50.2 (55047) - http://www.bohemiancoding.com/sketch -->
    <title>icon / contact us 2@2x</title>
    <desc>Created with Sketch.</desc>
    <defs></defs>
    <g id="Symbols" stroke="none" stroke-width="1" fill="none" fill-rule="evenodd">
        <g id="mobile-/-nav-bar" transform="translate(-228.000000, -22.000000)">
            <g id="icon-/-contact-us-2" transform="translate(228.000000, 22.000000)">
                <g id="Message" transform="translate(1.000000, 1.000000)">
                    <path d="M22.8236235,13.5117341 L16.1822118,8.06151463 L22.8236235,2.61175854 L22.8236235,13.5117341 Z M22.8236235,16.4511732 C22.8236235,17.217661 22.1897412,17.8414171 21.4118588,17.8414171 L2.58832941,17.8414171 C1.80997647,17.8414171 1.17656471,17.217661 1.17656471,16.4511732 L1.17656471,14.7189293 L8.55350588,8.6653439 L10.4932706,10.2571732 C10.9299765,10.6149293 11.4645647,10.7942707 12.0000941,10.7942707 C12.5351529,10.7942707 13.0697412,10.6149293 13.5069176,10.2571732 L15.4462118,8.6653439 L22.8236235,14.7189293 L22.8236235,16.4511732 Z M1.17656471,2.61175854 L7.81750588,8.06151463 L1.17656471,13.5117341 L1.17656471,2.61175854 Z M2.58832941,1.15849024 L21.4118588,1.15849024 C21.8509176,1.15849024 22.2391529,1.36100244 22.4979765,1.67149024 L12.9040941,9.54490488 C12.3803294,9.97495366 11.6193882,9.97495366 11.0960941,9.54490488 L1.50174118,1.67149024 C1.76103529,1.36100244 2.1488,1.15849024 2.58832941,1.15849024 Z M23.7648,2.54873415 C23.7648,1.2711 22.7092706,0.231660976 21.4118588,0.231660976 L2.58832941,0.231660976 C1.29091765,0.231660976 0.235388235,1.2711 0.235388235,2.54873415 L0.235388235,16.4511732 C0.235388235,17.7288073 1.29091765,18.7682463 2.58832941,18.7682463 L21.4118588,18.7682463 C22.7092706,18.7682463 23.7648,17.7288073 23.7648,16.4511732 L23.7648,2.54873415 Z" id="Fill-1" fill="#AA1E23"></path>
                    <path d="M22.8236235,13.5117341 L16.1822118,8.06151463 L22.8236235,2.61175854 L22.8236235,13.5117341 Z M22.8236235,16.4511732 C22.8236235,17.217661 22.1897412,17.8414171 21.4118588,17.8414171 L2.58832941,17.8414171 C1.80997647,17.8414171 1.17656471,17.217661 1.17656471,16.4511732 L1.17656471,14.7189293 L8.55350588,8.6653439 L10.4932706,10.2571732 C10.9299765,10.6149293 11.4645647,10.7942707 12.0000941,10.7942707 C12.5351529,10.7942707 13.0697412,10.6149293 13.5069176,10.2571732 L15.4462118,8.6653439 L22.8236235,14.7189293 L22.8236235,16.4511732 Z M1.17656471,2.61175854 L7.81750588,8.06151463 L1.17656471,13.5117341 L1.17656471,2.61175854 Z M2.58832941,1.15849024 L21.4118588,1.15849024 C21.8509176,1.15849024 22.2391529,1.36100244 22.4979765,1.67149024 L12.9040941,9.54490488 C12.3803294,9.97495366 11.6193882,9.97495366 11.0960941,9.54490488 L1.50174118,1.67149024 C1.76103529,1.36100244 2.1488,1.15849024 2.58832941,1.15849024 Z M23.7648,2.54873415 C23.7648,1.2711 22.7092706,0.231660976 21.4118588,0.231660976 L2.58832941,0.231660976 C1.29091765,0.231660976 0.235388235,1.2711 0.235388235,2.54873415 L0.235388235,16.4511732 C0.235388235,17.7288073 1.29091765,18.7682463 2.58832941,18.7682463 L21.4118588,18.7682463 C22.7092706,18.7682463 23.7648,17.7288073 23.7648,16.4511732 L23.7648,2.54873415 Z" id="Stroke-3" stroke="#AA1E23"></path>
                </g>
            </g>
        </g>
    </g>
</svg>