<?xml version="1.0" encoding="UTF-8"?>
<svg width="20px" height="21px" viewBox="0 0 20 21" version="1.1" xmlns="http://www.w3.org/2000/svg" xmlns:xlink="http://www.w3.org/1999/xlink">
    <!-- Generator: Sketch 50.2 (55047) - http://www.bohemiancoding.com/sketch -->
    <title>Fill 1@2x</title>
    <desc>Created with Sketch.</desc>
    <defs></defs>
    <g id="Symbols" stroke="none" stroke-width="1" fill="none" fill-rule="evenodd">
        <g id="mobile-/-nav-bar" transform="translate(-187.000000, -22.000000)" fill="#AA1F24">
            <path d="M204.380154,36.6162304 C203.111516,35.5319872 201.824028,34.8739015 200.571781,35.9573252 L199.822727,36.6121327 C199.275278,37.0874623 198.257417,39.3083989 194.322016,34.7821137 C190.387434,30.2607458 192.728842,29.5559467 193.27711,29.0855343 L194.029443,28.4290877 C195.275953,27.344025 194.805541,25.9770426 193.906512,24.5690835 L193.363981,23.7167684 C192.460855,22.312907 191.477414,21.3909314 190.227625,22.4759942 L189.552329,23.065239 C188.999964,23.4684496 187.455962,24.775606 187.081435,27.2604325 C186.630691,30.242716 188.052583,33.6568938 191.310229,37.4021633 C194.563779,41.1498914 197.749306,43.0323605 200.76683,42.9995792 C203.274603,42.9733541 204.789102,41.62686 205.262792,41.1384179 L205.940547,40.547534 C207.187058,39.4641103 206.412598,38.3610178 205.14396,37.2734965 L204.380154,36.6162304 Z" id="Fill-1"></path>
        </g>
    </g>
</svg>