<?xml version="1.0" encoding="UTF-8" standalone="no"?>
<svg width="107px" height="32px" viewBox="0 0 107 32" version="1.1" xmlns="http://www.w3.org/2000/svg" xmlns:xlink="http://www.w3.org/1999/xlink">
    <!-- Generator: sketchtool 42 (36781) - http://www.bohemiancoding.com/sketch -->
    <title>8067E441-FA5A-4ECB-9408-DBF88012242E</title>
    <desc>Created with sketchtool.</desc>
    <defs>
        <polygon id="path-1" points="32.4286839 0.223428571 0.033901919 0.223428571 0.033901919 31.9997571 32.4286839 31.9997571 32.4286839 0.223428571"></polygon>
    </defs>
    <g id="Symbols" stroke="none" stroke-width="1" fill="none" fill-rule="evenodd">
        <g id="nav-bar-desktop-4" transform="translate(-47.000000, -13.000000)">
            <g id="Group">
                <g id="CrimsonLogo-/-colour" transform="translate(47.000000, 13.000000)">
                    <g id="Group-3">
                        <g id="CrimsonLogo_xs">
                            <g id="Group-6">
                                <mask id="mask-2" fill="white">
                                    <use xlink:href="#path-1"></use>
                                </mask>
                                <g id="Clip-2"></g>
                                <path d="M10.6728891,7.65371429 L9.29364606,5.25657143 C9.08910448,4.89885714 8.58001066,4.89714286 8.37377399,5.25314286 L5.50680171,10.1971429 C5.31525586,10.528 5.31525586,10.9382857 5.50680171,11.2691429 L6.9323774,13.7274286 C7.64770789,11.3817143 8.95462687,9.3 10.6728891,7.65371429" id="Fill-1" fill="#AA1E23" mask="url(#mask-2)"></path>
                                <path d="M22.135693,25.5565714 C17.3526972,26.5885714 19.6851493,24.5662857 18.4420789,23.4582857 C17.7499147,22.8411429 15.8768337,22.5891429 14.5908209,22.536 C11.7068977,22.4171429 11.6526546,20.8811429 12.4951173,19.888 C13.1714606,19.0908571 12.595693,18.6131429 12.6714072,18.2571429 C12.7471215,17.9011429 12.9607036,17.7657143 13.1352985,17.5834286 C13.3991684,17.3068571 12.4600853,16.9445714 12.2340725,16.6257143 C11.7215885,15.9045714 11.8555011,15.4411429 12.5685714,15.2914286 C13.2816418,15.1417143 15.3654797,13.952 15.4745309,13.3497143 C15.5835821,12.7474286 16.518145,10.6868571 18.5053625,10.1988571 C21.7605117,9.40057143 25.104371,10.4182857 26.9859275,13.6011429 C27.1622175,13.9 27.5447441,14 27.8538166,13.8474286 L32.0418337,11.7891429 C32.3904584,11.6177143 32.5362367,11.1805714 32.3418657,10.8411429 C29.9303092,6.62457143 25.4258742,3.78571429 20.2626119,3.78571429 C16.5458316,3.78571429 13.1708955,5.25885714 10.670629,7.65542857 L12.6369403,8.15257143 C12.9042004,8.22057143 13.0330277,8.52742857 12.8951599,8.76914286 L9.82421109,14.1457143 C9.70724947,14.3502857 9.46824094,14.4497143 9.24279318,14.3874286 L6.92672708,13.7451429 C6.4023774,15.4737143 6.19444563,17.3434286 6.37977612,19.2851429 C7.03577825,26.1537143 12.6827079,31.6085714 19.4964286,31.9788571 C21.7949787,32.104 23.9771322,31.6622857 25.9259275,30.7845714 C26.2813326,30.6245714 26.4412367,30.204 26.271162,29.8502857 L24.1935394,25.5274286 C24.0426759,25.2137143 23.6850107,25.0634286 23.3595522,25.1788571 C22.9702452,25.3171429 22.4656716,25.4857143 22.135693,25.5565714" id="Fill-3" fill="#232950" mask="url(#mask-2)"></path>
                                <path d="M4.78525586,0.494857143 L6.51425373,3.52171429 C6.70240938,3.85142857 6.70240938,4.25771429 6.51425373,4.58742857 L4.78525586,7.61428571 C4.57901919,7.97542857 4.06427505,7.97714286 3.85577825,7.61714286 L2.10248401,4.59371429 C1.90924307,4.26057143 1.90924307,3.84857143 2.10248401,3.516 L3.85577825,0.492 C4.06427505,0.132 4.57901919,0.133714286 4.78525586,0.494857143" id="Fill-4" fill="#AA1E23" mask="url(#mask-2)"></path>
                                <path d="M2.19401919,8.22 L3.29922175,10.1548571 C3.4873774,10.4845714 3.4873774,10.8908571 3.29922175,11.2205714 L2.19401919,13.1548571 C1.98778252,13.516 1.47303838,13.5177143 1.26454158,13.1582857 L0.144648188,11.2262857 C-0.0480277186,10.8937143 -0.0480277186,10.4811429 0.144648188,10.1485714 L1.26454158,8.21657143 C1.47303838,7.85714286 1.98778252,7.85885714 2.19401919,8.22" id="Fill-5" fill="#AA1E23" mask="url(#mask-2)"></path>
                            </g>
                            <path d="M37.6136141,27.456 C36.9576119,27.7588571 36.2027292,27.9097143 35.3472708,27.9097143 C34.5680917,27.9097143 33.8482409,27.78 33.1877186,27.5205714 C32.5277612,27.2611429 31.9553838,26.8937143 31.4711514,26.4182857 C30.9863539,25.9422857 30.6060874,25.3731429 30.3303518,24.7097143 C30.0551812,24.0468571 29.9178785,23.3171429 29.9178785,22.5194286 C29.9178785,21.7028571 30.0574414,20.9628571 30.3382623,20.3 C30.6179531,19.6365714 31.005565,19.0725714 31.499403,18.6062857 C31.9932409,18.1405714 32.5723987,17.7822857 33.2380064,17.532 C33.903049,17.2822857 34.6206397,17.1571429 35.3902132,17.1571429 C36.1027186,17.1571429 36.8033582,17.2851429 37.4921322,17.54 C38.1809062,17.7942857 38.7397228,18.1662857 39.166887,18.6565714 L37.5136034,20.3285714 C37.2853305,20.0114286 36.9864286,19.776 36.6157676,19.6222857 C36.2451066,19.4685714 35.8648401,19.392 35.475533,19.392 C35.0483689,19.392 34.6562367,19.4708571 34.2997015,19.6297143 C33.9431663,19.788 33.637484,20.0062857 33.3803945,20.2851429 C33.1238699,20.564 32.9244136,20.8931429 32.7820256,21.2725714 C32.6396375,21.6525714 32.5684435,22.0674286 32.5684435,22.5194286 C32.5684435,22.9805714 32.6396375,23.4034286 32.7820256,23.788 C32.9244136,24.172 33.1216098,24.5011429 33.3736141,24.7748571 C33.6250533,25.0485714 33.9267804,25.2628571 34.2782303,25.4165714 C34.6302452,25.5697143 35.014467,25.6468571 35.4325906,25.6468571 C35.9173881,25.6468571 36.340032,25.5508571 36.7010874,25.3588571 C37.0621429,25.1662857 37.3520043,24.9165714 37.5706716,24.6091429 L39.2668977,26.224 C38.8199574,26.7422857 38.2690512,27.1531429 37.6136141,27.456" id="Fill-7" fill="#AA1E23"></path>
                            <path d="M47.2818763,20.5594286 C47.2818763,20.3194286 47.2315885,20.1245714 47.1310128,19.9754286 C47.0310021,19.8262857 46.9021748,19.7114286 46.7445309,19.6297143 C46.586887,19.548 46.410597,19.4925714 46.2145309,19.4634286 C46.0190299,19.4348571 45.8303092,19.4205714 45.6489339,19.4205714 L44.3454051,19.4205714 L44.3454051,21.7982857 L45.5059808,21.7982857 C45.7065672,21.7982857 45.9116738,21.7822857 46.1218657,21.7485714 C46.3314925,21.7148571 46.5224733,21.6542857 46.6948081,21.568 C46.8665778,21.4817143 47.0072708,21.3571429 47.116887,21.1937143 C47.2265032,21.0302857 47.2818763,20.8182857 47.2818763,20.5594286 Z M47.381322,27.636 L45.190693,23.5857143 L44.3600959,23.5857143 L44.3600959,27.636 L41.9801812,27.636 L41.9801812,17.4314286 L45.828049,17.4314286 C46.3128465,17.4314286 46.7852132,17.4817143 47.2462793,17.5828571 C47.7067804,17.6834286 48.1198188,17.8542857 48.4859595,18.0948571 C48.8521002,18.3348571 49.1442217,18.652 49.3623241,19.0457143 C49.5809915,19.4394286 49.6906077,19.9297143 49.6906077,20.516 C49.6906077,21.2074286 49.5047122,21.7891429 49.1346162,22.26 C48.7639552,22.7308571 48.2509062,23.0668571 47.5954691,23.2685714 L50.2319083,27.636 L47.381322,27.636 L47.381322,27.636 Z" id="Fill-8" fill="#AA1E23"></path>
                            <polygon id="Fill-9" fill="#AA1E23" points="53.0864499 27.636 55.5381237 27.636 55.5381237 17.4314286 53.0864499 17.4314286"></polygon>
                            <polyline id="Fill-10" fill="#AA1E23" points="68.4683156 27.636 68.5253838 20.4148571 68.4830064 20.4148571 65.8601279 27.636 64.1503412 27.636 61.5992217 20.4148571 61.5562793 20.4148571 61.6133475 27.636 59.3187527 27.636 59.3187527 17.4314286 62.7857889 17.4314286 65.083774 23.9754286 65.1408422 23.9754286 67.3382516 17.4314286 70.8629211 17.4314286 70.8629211 27.636 68.4683156 27.636"></polyline>
                            <path d="M79.6559488,20.0834286 C79.447452,19.8148571 79.1739765,19.6005714 78.8366525,19.4417143 C78.4993284,19.2834286 78.174435,19.204 77.8608422,19.204 C77.698678,19.204 77.5348188,19.2188571 77.3686994,19.2474286 C77.20258,19.276 77.0528465,19.3314286 76.920064,19.4131429 C76.7867164,19.4948571 76.6754051,19.6005714 76.585,19.7302857 C76.4945949,19.86 76.4493923,20.0262857 76.4493923,20.2274286 C76.4493923,20.4005714 76.4849893,20.5445714 76.5567484,20.66 C76.6273774,20.7754286 76.7319083,20.8765714 76.8697761,20.9628571 C77.0076439,21.0491429 77.1715032,21.1285714 77.3613539,21.2005714 C77.5512047,21.2725714 77.7653518,21.3474286 78.0026652,21.424 C78.3450746,21.5394286 78.7016098,21.6668571 79.0717058,21.8062857 C79.4423667,21.9457143 79.7796908,22.1302857 80.083678,22.3611429 C80.3876652,22.5914286 80.6396695,22.8771429 80.8391258,23.2182857 C81.0385821,23.56 81.1385928,23.9851429 81.1385928,24.4937143 C81.1385928,25.08 81.0318017,25.5874286 80.8176546,26.0148571 C80.6035075,26.4417143 80.3164712,26.7954286 79.9554158,27.0737143 C79.5943603,27.3525714 79.1807569,27.5594286 78.7151706,27.6937143 C78.2501493,27.828 77.7698721,27.8954286 77.2760341,27.8954286 C76.5539232,27.8954286 75.8555437,27.768 75.1808955,27.5131429 C74.5062473,27.2594286 73.9457356,26.8965714 73.4993603,26.4251429 L75.0955757,24.7822857 C75.3424947,25.0897143 75.6679531,25.3468571 76.071951,25.5531429 C76.4753838,25.76 76.8771215,25.8634286 77.2760341,25.8634286 C77.4562793,25.8634286 77.6325693,25.844 77.803209,25.8057143 C77.9744136,25.7668571 78.1241471,25.7045714 78.2518443,25.6182857 C78.3806716,25.532 78.4823774,25.4165714 78.5586567,25.2725714 C78.634936,25.128 78.6727932,24.9554286 78.6727932,24.7531429 C78.6727932,24.5611429 78.6253305,24.3982857 78.5304051,24.2634286 C78.4349147,24.1285714 78.2998721,24.0062857 78.1241471,23.896 C77.9484222,23.7857143 77.7297548,23.6845714 77.46871,23.5931429 C77.2071002,23.5017143 76.9104584,23.4034286 76.5782196,23.2977143 C76.2550213,23.192 75.9386034,23.0668571 75.6300959,22.9228571 C75.3210235,22.7788571 75.0458529,22.5937143 74.8034542,22.368 C74.5610554,22.1422857 74.3666844,21.8685714 74.2186461,21.5462857 C74.0717377,21.2245714 73.9982836,20.8331429 73.9982836,20.372 C73.9982836,19.8051429 74.111855,19.3194286 74.3401279,18.916 C74.5684009,18.5125714 74.8673028,18.1811429 75.2379638,17.9217143 C75.6086247,17.6617143 76.0267484,17.4725714 76.4923348,17.352 C76.9573561,17.232 77.4280277,17.172 77.9032196,17.172 C78.4733369,17.172 79.0553198,17.2777143 79.6491684,17.4891429 C80.2430171,17.7005714 80.7628465,18.0125714 81.2092217,18.4257143 L79.6559488,20.0834286" id="Fill-11" fill="#AA1E23"></path>
                            <path d="M91.6425373,22.4908571 C91.6425373,22.0485714 91.5713433,21.6354286 91.4289552,21.2508571 C91.2860021,20.8668571 91.089371,20.5377143 90.8373667,20.264 C90.5853625,19.9897143 90.2813753,19.7737143 89.9248401,19.6148571 C89.5688699,19.4565714 89.1767377,19.3771429 88.7495736,19.3771429 C88.3218443,19.3771429 87.9319723,19.4565714 87.5810874,19.6148571 C87.2290725,19.7737143 86.9250853,19.9897143 86.6685608,20.264 C86.4120362,20.5377143 86.2148401,20.8668571 86.0769723,21.2508571 C85.9391045,21.6354286 85.8701706,22.0485714 85.8701706,22.4908571 C85.8701706,22.9514286 85.9419296,23.3771429 86.0843177,23.7662857 C86.2267058,24.1554286 86.4239019,24.4891429 86.6759062,24.768 C86.9273454,25.0462857 87.2290725,25.2645714 87.5810874,25.4234286 C87.9319723,25.5817143 88.3218443,25.6611429 88.7495736,25.6611429 C89.1767377,25.6611429 89.5666098,25.5817143 89.9180597,25.4234286 C90.2695096,25.2645714 90.5734968,25.0462857 90.8300213,24.768 C91.0865458,24.4891429 91.2860021,24.1554286 91.4289552,23.7662857 C91.5713433,23.3771429 91.6425373,22.9514286 91.6425373,22.4908571 Z M94.2501599,22.4908571 C94.2501599,23.2977143 94.1128571,24.0348571 93.8376866,24.7028571 C93.5613859,25.3708571 93.1794243,25.9422857 92.6901066,26.4182857 C92.2007889,26.8937143 91.618806,27.2611429 90.9441578,27.5205714 C90.2695096,27.78 89.5377932,27.9097143 88.7495736,27.9097143 C87.9607889,27.9097143 87.2313326,27.78 86.5617697,27.5205714 C85.8916418,27.2611429 85.311919,26.8937143 84.8231663,26.4182857 C84.3332836,25.9422857 83.9507569,25.3708571 83.6755864,24.7028571 C83.3998507,24.0348571 83.262548,23.2977143 83.262548,22.4908571 C83.262548,21.6737143 83.3998507,20.936 83.6755864,20.2782857 C83.9507569,19.62 84.3332836,19.06 84.8231663,18.5994286 C85.311919,18.1377143 85.8916418,17.7822857 86.5617697,17.532 C87.2313326,17.2822857 87.9607889,17.1571429 88.7495736,17.1571429 C89.5377932,17.1571429 90.2695096,17.2822857 90.9441578,17.532 C91.618806,17.7822857 92.2007889,18.1377143 92.6901066,18.5994286 C93.1794243,19.06 93.5613859,19.62 93.8376866,20.2782857 C94.1128571,20.936 94.2501599,21.6737143 94.2501599,22.4908571 L94.2501599,22.4908571 Z" id="Fill-12" fill="#AA1E23"></path>
                            <polyline id="Fill-13" fill="#AA1E23" points="103.370906 27.636 99.3088913 20.9628571 99.2659488 20.9628571 99.3230171 27.636 96.9572281 27.636 96.9572281 17.4314286 99.7366205 17.4314286 103.783945 24.0902857 103.826887 24.0902857 103.769819 17.4314286 106.135608 17.4314286 106.135608 27.636 103.370906 27.636"></polyline>
                        </g>
                    </g>
                </g>
            </g>
        </g>
    </g>
</svg>
