<svg version="1" xmlns="http://www.w3.org/2000/svg" width="3149.333" height="3149.333" viewBox="0 0 2362.000000 2362.000000"><path d="M489.1 382.4c-6.1 2.2-10.6 7.2-17.7 19.3-3.7 6.5-10.8 18.5-15.6 26.6-4.8 8.2-8.8 15-8.8 15.3 0 .3-.9 1.7-1.9 3.2-1.6 2.3-26.3 44.4-31.8 54.2-1.1 1.9-5.1 8.6-8.8 14.8-7.7 13-10.5 20.9-10.6 30.3-.2 13.2-.1 13.3 35.1 73.4 2.6 4.4 14.7 25.1 26.9 46 14.9 25.5 23.4 39.1 25.9 41.3 4.3 3.7 12 6.3 17.4 5.7 8-.9 16.9-7.1 19.9-13.9.5-1.1 1.3-2.8 1.9-3.6 1.5-2.3 16-27.1 16-27.4 0-.4 22.6-39.5 24-41.6.6-.8 1.3-2.2 1.7-3 .3-.8 2.1-3.9 4-6.8 1.8-2.9 3.3-5.4 3.3-5.7 0-.2 3-5.5 6.6-11.7 21.3-36.4 22.5-39.1 22.7-51.3.1-13.2-.6-14.7-30.3-66-.9-1.7-4.3-7.5-7.5-13s-8.3-14.3-11.3-19.5c-3-5.2-6.3-11-7.3-12.7-8.3-14.7-24.3-42-26.3-44.9-6-8.9-17.5-12.6-27.5-9zM1323.7 452.6c-.1.1-10.1.5-22.2.8-12.1.4-23.6.8-25.5 1-1.9.3-7.1.7-11.5 1.1-11.6.8-13.7 1.1-45.5 5.1-1.9.3-6.4.9-10 1.5-3.6.6-7.8 1.3-9.5 1.5-2.8.5-21 3.9-26.4 5-1.2.3-5.3 1.2-9 2-3.6.9-7.5 1.8-8.6 2-1.1.2-2.9.6-4 .8-1.1.2-4 .9-6.5 1.6-2.5.7-5.4 1.4-6.5 1.6-1.1.2-5.1 1.3-9 2.4-3.8 1.2-7.7 2.3-8.5 2.4-11.7 2.7-50.9 16.1-74 25.4-21.7 8.6-69 30.6-73.5 34.2-.5.4-4.1 2.4-8 4.4-3.8 2-7.7 4.1-8.5 4.6-.8.5-7.3 4.4-14.5 8.6-18.3 10.8-47.3 30.2-65 43.4-8.2 6.2-15.2 11.6-15.5 11.9-.3.3-2.3 1.9-4.5 3.6-2.2 1.6-4.2 3.2-4.5 3.5-.3.3-3.2 2.8-6.5 5.5-6.5 5.4-18 15.4-26 22.5-2.7 2.4-14.8 14.3-26.9 26.3-12 12-21.9 21.7-22 21.5-.2-.6-3.1-5.6-11.4-19.8-4.7-8-9.5-16.3-10.7-18.5-8.8-15.8-36.2-62.5-37.9-64.4-5.7-6.4-18.2-8.9-26.1-5.2-6.9 3.3-9.1 6.1-21.1 26.6-6.4 11-14 23.8-16.7 28.5-2.8 4.7-7 11.9-9.4 16-2.4 4.1-4.8 8.2-5.4 9-.5.8-3.8 6.4-7.3 12.5-3.5 6-14.8 25.4-25.1 43s-24.1 41-30.5 52c-6.5 11-14.3 24.3-17.4 29.6-7.7 13.1-9.4 18.6-9.4 29.8 0 9.6 1.4 15.1 6.5 24 1.4 2.5 3.1 5.5 3.7 6.6.6 1.1 1.9 3.1 2.7 4.5 2 3.1 53.2 90.7 54.7 93.6.9 1.7.4 4.4-2.7 14-4.4 13.5-7.9 25-8.6 27.9-.2 1.1-1.7 6.9-3.4 13-2.7 9.8-8.2 33.4-9.5 40.8-.2 1.5-.7 3.5-1 4.5-.3.9-.7 3.3-1 5.2-.3 1.9-.8 4.5-1 5.6-.2 1.2-.7 3.9-1 6-.4 2.2-.8 4.6-1.1 5.4-.2.8-.6 3.7-1 6.5-.3 2.7-1 7.7-1.5 11-1 6.6-1.6 11.5-2.5 19-.3 2.7-.7 6.4-.9 8.1-.2 1.7-.7 7.1-1.1 12-.4 4.9-.9 10.2-1.1 11.9-2 17.5-2 92.4.1 106.5.2 1.4.7 6.5 1 11.4.4 4.9.8 9.8 1.1 10.9.2 1.2.6 4.9.9 8.4.3 3.5.7 7.8 1 9.6 1 7.7 2.7 19.3 3 20.7.1.8.6 3.5 1 6s.9 5.4 1.1 6.5c.2 1 .6 3.7 1 6 .3 2.2 1.9 10.3 3.5 18 1.7 7.7 3.2 15.1 3.5 16.5.3 1.4 1 4.3 1.5 6.5s1.2 5.1 1.5 6.5c.3 1.4 1.6 6.8 3 12 19.1 71.4 46.7 136.3 84.5 198.5 10.1 16.6 29.8 46.4 35.1 53 1.2 1.4 6 7.8 8.3 11.1 1.9 2.6 13.6 17.4 17.3 21.9 3.6 4.4 11.8 14.1 13.9 16.5 1.2 1.4 3.1 3.6 4.3 5 17.4 20.2 49.3 51.6 72.9 71.9 7.5 6.4 13.8 11.8 14.1 12.1.3.3 2.8 2.3 5.5 4.5 2.8 2.2 5.5 4.3 6 4.8 9.8 8 34.7 25.9 52 37.4 11.2 7.5 46.9 29.3 47.9 29.3.3 0 2.9 1.4 5.8 3.1 16.9 10 57.9 29.2 86.4 40.4 25 10 75.6 26.4 88.8 28.9 1.2.2 6.8 1.6 12.6 3 5.8 1.5 11.9 2.9 13.5 3.2 1.7.3 5.9 1.1 9.5 1.9 7.8 1.7 27.1 5.3 32 5.9 3.6.5 9.6 1.4 14 2.2 4 .7 26.8 3.2 35.5 4 4.4.3 8.7.8 9.5.9 13.6 2.5 88.1 2.5 120 0 20.3-1.6 72.5-8.5 74.9-9.9.4-.2 3-.7 6-1 2.9-.4 5.7-.8 6.1-1.1.4-.2 2.2-.7 4.1-1 1.9-.3 9.5-2 16.9-3.7 7.4-1.7 14-3.1 14.5-3.3 9.5-2.1 39.5-10.8 56.1-16.4 39.4-13.1 72-26.9 78.3-33.2 4.1-4.2 9.1-11.3 9.1-13.1 0-.8.4-1.8.9-2.3 2.3-2.3 3.3-15.1 1.8-23-.8-4.6-8.4-20.2-40.2-82-4.5-8.8-15-29.3-23.3-45.5s-18.9-36.9-23.5-46c-10-19.5-14.8-25.3-25.4-30.3-6.3-2.9-7.6-3.2-16.8-3.2-9.4 0-10.9.3-25.1 5.3-12.4 4.2-27.1 8.7-35.4 10.7-.8.2-6 1.4-11.5 2.8-5.5 1.3-11.8 2.8-14 3.2-2.2.5-4.5.9-5.1 1.1-30.4 6.3-59.3 11.1-76.9 12.9-3.3.3-7.1.8-8.4 1-4.4.8-24.3 1.8-34.2 1.7-37.8 0-58.3-9.5-66-30.6-3-8.1-4.2-17.6-5.4-44.5-1.2-25.9-5.3-40.7-15.1-54.7-12.8-18.2-42.5-36.9-83.9-52.9-26.5-10.2-64.3-21-87.6-25-31.3-5.4-42.2-6.6-72.4-8-11.9-.6-19.5-1.2-26.2-2-2.4-.3-6.2-.7-8.5-1-9.8-1.2-12.5-1.5-15.3-2-2.5-.5-14-2.8-19.5-4-17.4-3.7-37.9-11.9-49.4-19.9-25.6-17.7-32.9-43.9-22.1-79.4 3.3-11 4.5-14 11.5-29.7 8.8-20 12.3-30.9 15.5-48.5.3-1.9.8-12.3 1-23 .6-23 .7-24.6 3.4-37.2 4-19 5.3-22.1 15.1-34.3 6.2-7.8 7.6-15.8 4.4-26.6-1.7-5.8-7.1-16.4-11-21.6-1.3-1.7-2.4-3.6-2.4-4.1 0-.6-.4-1.2-.9-1.4-1.5-.5-11.1-15.9-14.2-22.8-9.5-20.4-8.1-35.3 4.2-46.5 5.6-5.1 14.2-8.9 27.9-12.4 17.4-4.5 20.6-5.5 32-10 42.6-17.1 82.5-43 98.1-63.8 2.1-2.9 3.9-5.5 3.9-5.9 0-.4.7-1.5 1.5-2.4.8-.9 2.6-6.3 4.1-12.1 2.5-10.3 8.2-28.3 10.8-34.3.7-1.7 2.8-6.7 4.7-11.1 10.6-25.5 28.8-57.1 46.2-80 28-36.7 61.5-63.6 98.2-78.6 8.2-3.4 30-9.4 41.4-11.4 1.7-.3 6.2-1.2 9.9-1.9 3.7-.8 8.3-1.7 10.2-2 41.8-6.2 53.2-7.1 89-7.1 22.4 0 44 .9 50 2 .8.1 4.6.6 8.3 1 3.7.3 7.8.8 9 1.1 2.2.4 7.7 1.2 12.4 1.9 5.7.7 28.5 5.6 38 8.1 5.4 1.4 10.5 2.7 11.3 2.9.8.2 7.4 2.2 14.5 4.5 45.4 14.6 86.6 35.9 125.5 64.8 6.3 4.7 11.7 8.9 12 9.2.3.3 2.1 1.8 4 3.4 12.5 10.1 35.4 32.1 47.4 45.6 5.7 6.3 26.7 32.3 29.6 36.6.8 1.2 5.1 7.5 9.6 14 4.4 6.6 10.8 16.4 14.2 22 11.5 18.8 21.2 25.4 38.2 25.9 10 .3 13-.8 42.7-16.1 13.6-7 34.9-17.9 47.3-24.2 12.4-6.3 30.6-15.6 40.5-20.7 9.9-5.1 27.9-14.3 40-20.5 12.1-6.2 23.9-12.8 26.2-14.7 12.1-9.7 17.6-27.6 13.2-42.4-1.9-6.5-9-18.9-23.5-41-8.2-12.6-22.2-32.7-26.6-38.4-23.6-30.1-35.7-44.7-49.8-59.9-7.4-8-35.2-35.9-42-42.1-20.9-19.1-39.1-34.3-58-48.5-6.9-5.1-14.1-10.5-16-12-6.9-5.2-36.7-24.8-49-32.2-50.3-30.2-102-54-155-71.2-22.1-7.2-55.7-16.7-67.4-19-1.2-.3-5.4-1.2-9.3-2-4-.9-8.7-1.8-10.5-2.1-1.8-.3-4.9-1-6.8-1.5-1.9-.4-5.3-1.1-7.5-1.4-2.2-.3-4.9-.7-6-.9-1.1-.3-4.2-.8-6.8-1.1-2.7-.4-5.9-1-7-1.2-1.2-.3-3.8-.7-5.7-.9-1.9-.2-5.1-.6-7-.9-3.3-.4-9.6-1.3-16.5-2.1-4.6-.6-19.2-1.9-32-3-6.4-.5-55.5-2.2-55.8-1.9zm-539 248.6c4 1 8.1 2.1 9.2 2.3 1.1.2 9.3 2.2 18.3 4.5s17 4.3 17.8 4.5c1.8.4 9.8 2.4 12.3 3 .9.3 2.5.7 3.5.9 11.5 2.7 20.2 5.1 22.2 6.1 6 3.1 10 10.3 9.5 17.2-.3 3.4-4.4 13.3-6.5 15.3-.3.3-1.2 1.9-2.1 3.5-.8 1.7-11.8 20.8-24.4 42.5-12.6 21.7-23.9 41.3-25.1 43.5-1.2 2.2-5.2 9.2-8.9 15.5-3.7 6.3-7.6 13-8.6 14.8-1.1 1.8-8.4 14.4-16.2 28-7.9 13.6-15.5 26.7-16.9 29.2-1.4 2.5-3.9 6.9-5.7 9.8-1.7 2.9-3.1 5.6-3.1 5.9 0 .4-.6 1.4-1.4 2.2-.7.9-2.6 4.1-4.2 7.1s-3.1 5.7-3.4 6c-.3.3-3.2 5.1-6.3 10.7-7.1 12.6-9.6 15.6-15 18.2-8 3.9-7.5 3.9-69.7-12.9-22-6-24.1-6.5-27.7-7.4-4.8-1.2-18.8-5-19.1-5.2-.6-.4 1.5-6.5 9-26.4 13.6-35.7 29.1-68.5 49.7-105 10.4-18.5 27.9-45.6 41.5-64.5 9.3-12.9 31.4-41.5 36.8-47.6 1.3-1.5 3.4-4 4.8-5.6 3.1-3.8 14.1-16.2 15.8-18 1.4-1.4 2-1.3 13.9 1.9zM377.5 715.7c-3.7.9-10 5.5-12.8 9.3-1.5 2.1-5.9 9.4-9.9 16.2-11 19.1-12.6 21.8-27.2 46.8-7.6 12.9-14.2 24-14.6 24.5-2.3 2.8-4.9 16.3-4.5 23.5.4 9.3 2.9 16.2 10.5 28.8 3.2 5.3 7.1 11.9 8.5 14.7 1.5 2.7 3.3 5.7 4 6.5.6.8 1.5 2.2 1.8 3 .4.8 1.9 3.6 3.4 6.2 3.1 5.1 10.3 17.4 21.7 36.8 5.8 10 8.3 13.2 12.2 16 4.6 3.3 5.3 3.5 12.9 3.5 8.8 0 12.3-1.3 17.1-6.5 2.4-2.5 13-19.9 22.9-37.7 3.6-6.3 16.6-28.8 21.9-37.6 2.5-4.3 4.6-8.1 4.6-8.3 0-.2 1.1-2.1 2.3-4.2 4.4-6.9 6.2-13.9 6.1-24.2-.1-13.6 1.6-10.1-37.7-78-4.9-8.5-11-19-13.5-23.3-5.1-8.8-10.3-13.8-16.1-15.5-3.8-1.2-9.8-1.4-13.6-.5z"/></svg>